<?xml version="1.0" encoding="UTF-8" standalone="no"?>
<svg
   xmlns:dc="http://purl.org/dc/elements/1.1/"
   xmlns:cc="http://creativecommons.org/ns#"
   xmlns:rdf="http://www.w3.org/1999/02/22-rdf-syntax-ns#"
   xmlns:svg="http://www.w3.org/2000/svg"
   xmlns="http://www.w3.org/2000/svg"
   xmlns:sodipodi="http://sodipodi.sourceforge.net/DTD/sodipodi-0.dtd"
   xmlns:inkscape="http://www.inkscape.org/namespaces/inkscape"
   width="36px"
   height="36px"
   viewBox="0 0 36 36"
   version="1.1"
   id="svg3747"
   inkscape:version="0.91 r13725"
   sodipodi:docname="filter-icon.svg">
  <metadata
     id="metadata3784">
    <rdf:RDF>
      <cc:Work
         rdf:about="">
        <dc:format>image/svg+xml</dc:format>
        <dc:type
           rdf:resource="http://purl.org/dc/dcmitype/StillImage" />
        <dc:title>active cards icon</dc:title>
      </cc:Work>
    </rdf:RDF>
  </metadata>
  <sodipodi:namedview
     pagecolor="#ffffff"
     bordercolor="#666666"
     borderopacity="1"
     objecttolerance="10"
     gridtolerance="10"
     guidetolerance="10"
     inkscape:pageopacity="0"
     inkscape:pageshadow="2"
     inkscape:window-width="1920"
     inkscape:window-height="1056"
     id="namedview3782"
     showgrid="false"
     inkscape:zoom="11.313709"
     inkscape:cx="54.03868"
     inkscape:cy="32.792402"
     inkscape:window-x="1366"
     inkscape:window-y="24"
     inkscape:window-maximized="1"
     inkscape:current-layer="svg3747" />
  <!-- Generator: Sketch 48.2 (47327) - http://www.bohemiancoding.com/sketch -->
  <title
     id="title3749">active cards icon</title>
  <desc
     id="desc3751">Created with Sketch.</desc>
  <defs
     id="defs3753">
    <inkscape:perspective
       sodipodi:type="inkscape:persp3d"
       inkscape:vp_x="0 : 18 : 1"
       inkscape:vp_y="0 : 1000 : 0"
       inkscape:vp_z="36 : 18 : 1"
       inkscape:persp3d-origin="18 : 12 : 1"
       id="perspective4004" />
    <rect
       id="path-1"
       x="0"
       y="0"
       width="30"
       height="30"
       rx="2" />
    <filter
       x="-15.0%"
       y="-15.0%"
       width="130.0%"
       height="130.0%"
       filterUnits="objectBoundingBox"
       id="filter-2">
      <feOffset
         dx="0"
         dy="0"
         in="SourceAlpha"
         result="shadowOffsetOuter1"
         id="feOffset3757" />
      <feGaussianBlur
         stdDeviation="1.5"
         in="shadowOffsetOuter1"
         result="shadowBlurOuter1"
         id="feGaussianBlur3759" />
      <feComposite
         in="shadowBlurOuter1"
         in2="SourceAlpha"
         operator="out"
         result="shadowBlurOuter1"
         id="feComposite3761" />
      <feColorMatrix
         values="0 0 0 0 0.912335247   0 0 0 0 0.912335247   0 0 0 0 0.912335247  0 0 0 0.5 0"
         type="matrix"
         in="shadowBlurOuter1"
         id="feColorMatrix3763" />
    </filter>
  </defs>
  <g
     id="g3986"
     transform="matrix(0.40608567,0,0,0.40815263,8.7372956,9.3784194)">
    <g
       id="g3988">
      <g
         id="g3990">
        <path
           id="path3992"
           data-original="#000000"
           d="M 43.729,0.29 C 43.51,0.07 43.216,-0.013 42.93,0.014 l -41.831,0 C 0.813,-0.012 0.52,0.071 0.301,0.29 0.211,0.38 0.146,0.485 0.098,0.596 0.039,0.724 0,0.864 0,1.014 0,1.306 0.129,1.563 0.329,1.745 L 15,22.284 15,42.946 c -0.008,0.152 0.015,0.304 0.077,0.446 0.149,0.364 0.505,0.621 0.923,0.621 0.303,0 0.565,-0.142 0.749,-0.354 L 28.729,31.706 C 28.956,31.479 29.036,31.173 29,30.878 L 29,22.289 43.729,1.706 c 0.392,-0.391 0.392,-1.025 0,-1.416 z M 27.284,21.288 C 27.075,21.497 26.986,21.773 27,22.047 l 0,8.553 -10,9.977 0,-18.53 c 0.014,-0.273 -0.075,-0.55 -0.284,-0.759 L 2.949,2.014 l 38.128,0 -13.793,19.274 z"
           inkscape:connector-curvature="0"
           style="fill:#000000" />
      </g>
    </g>
  </g>
  <path
     style="fill:#5d6787;fill-opacity:1;stroke:none"
     d="m 15.558828,24.110638 c 0,-1.161467 0.0011,-1.636613 0.0025,-1.055879 0.0014,0.580734 0.0014,1.531025 0,2.111759 -0.0014,0.580733 -0.0025,0.105587 -0.0025,-1.05588 z"
     id="path4810"
     inkscape:connector-curvature="0" />
  <path
     style="fill:#5d6787;fill-opacity:1;stroke:none"
     d="m 15.078129,27.28386 c -0.255485,-0.112939 -0.240815,0.164521 -0.240815,-4.554726 l 0,-4.270245 -0.697966,-0.984827 C 13.755466,16.932407 12.928686,15.768472 12.302059,14.88754 11.675431,14.006608 10.724836,12.668049 10.189625,11.912964 9.6544142,11.157879 9.1168934,10.404045 8.9951345,10.237777 8.8284131,10.010111 8.7737548,9.9035662 8.7737548,9.8062449 c 0,-0.142209 0.056032,-0.2707187 0.1492376,-0.34228 0.047146,-0.036198 1.9819476,-0.046724 8.7615676,-0.04767 l 8.701059,-0.00121 0.102025,0.1212496 c 0.210866,0.2506007 0.252707,0.1784992 -1.644746,2.8342589 -0.944096,1.321398 -2.311658,3.238113 -3.039027,4.259365 l -1.322489,1.856823 0,1.860803 0,1.860803 -2.545551,2.544191 c -1.626997,1.626129 -2.579954,2.551551 -2.64089,2.564587 -0.05244,0.01122 -0.150002,-0.0038 -0.216812,-0.0333 z m 4.638553,-7.231248 0.002,-1.813741 1.912923,-2.686259 c 2.416124,-3.392889 3.746404,-5.266065 3.783201,-5.327148 0.02294,-0.03807 -1.534838,-0.04767 -7.738513,-0.04767 l -7.7672304,0 0.067783,0.104873 c 0.03728,0.05768 0.5315484,0.756992 1.0983734,1.554026 0.566825,0.797034 1.494164,2.101271 2.060753,2.898305 0.566589,0.797034 1.344555,1.890838 1.728813,2.430676 0.384257,0.539839 0.715466,1.025754 0.736019,1.079813 0.02348,0.06176 0.03765,1.518224 0.03811,3.9189 l 7.43e-4,3.820611 2.037522,-2.059322 2.037522,-2.059322 0.002,-1.813742 2e-6,0 z"
     id="path4812"
     inkscape:connector-curvature="0" />
  <path
     style="fill:#5d6787;fill-opacity:1;stroke:none"
     d="m 24.111275,13.398237 c 1.686649,-2.362222 1.754871,-2.458205 1.992981,-2.803995 0.381127,-0.553484 0.501975,-0.7792126 0.481417,-0.8992267 -0.0078,-0.04574 -0.02566,-0.074466 -0.104873,-0.1690275 -0.03993,-0.047664 -0.07156,-0.087706 -0.07028,-0.08898 0.005,-0.00498 0.05832,0.036586 0.09095,0.070882 0.05137,0.05399 0.08429,0.1150588 0.101292,0.1879141 0.0054,0.023169 0.0073,0.046403 0.0073,0.089844 0,0.043441 -0.0019,0.066675 -0.0073,0.089844 -0.01505,0.064504 -0.0477,0.1292554 -0.0882,0.1749404 -0.01193,0.01346 -0.07924,0.105284 -0.149584,0.20406 -0.07034,0.09878 -0.628564,0.882718 -1.240494,1.742093 -0.839316,1.178709 -1.114719,1.56281 -1.121227,1.563761 -0.0067,9.79e-4 0.01749,-0.03532 0.108021,-0.162109 z"
     id="path4814"
     inkscape:connector-curvature="0" />
  <path
     style="fill:#5d6787;fill-opacity:1;stroke:none"
     d="m 22.233102,9.3989291 0,-0.013672 2.014648,5.13e-5 c 1.96555,5.01e-5 2.015505,2.326e-4 2.049805,0.00749 0.01934,0.00409 0.04219,0.010095 0.05078,0.013345 0.01398,0.00529 -0.20151,0.00594 -2.049804,0.00619 l -2.06543,2.753e-4 0,-0.013672 z"
     id="path4816"
     inkscape:connector-curvature="0" />
</svg>
