<svg xmlns="http://www.w3.org/2000/svg" width="20" height="20" viewBox="0 0 20 20">
    <g fill="#5C6687" fill-rule="nonzero">
        <path d="M10 0C4.486 0 0 4.486 0 10s4.486 10 10 10 10-4.486 10-10S15.514 0 10 0zm0 19.167C4.946 19.167.833 15.054.833 10 .833 4.946 4.946.833 10 .833c5.054 0 9.167 4.113 9.167 9.167 0 5.054-4.113 9.167-9.167 9.167z"/>
        <path d="M10 5c-2.758 0-5 2.242-5 5s2.242 5 5 5 5-2.242 5-5-2.242-5-5-5zm0 9.167A4.171 4.171 0 0 1 5.833 10 4.171 4.171 0 0 1 10 5.833 4.171 4.171 0 0 1 14.167 10 4.171 4.171 0 0 1 10 14.167z"/>
        <path d="M5.934 8.292L2.205 4.563a.417.417 0 0 0-.59.59l3.73 3.728a.419.419 0 0 0 .59 0 .417.417 0 0 0 0-.59zM8.88 5.345l-3.728-3.73a.417.417 0 0 0-.589.59l3.728 3.73a.419.419 0 0 0 .59 0 .417.417 0 0 0 0-.59zM15.437 17.795l-3.73-3.73a.417.417 0 0 0-.589.59l3.73 3.73a.419.419 0 0 0 .589 0 .417.417 0 0 0 0-.59zM18.383 14.848l-3.729-3.728a.417.417 0 0 0-.589.59l3.73 3.727a.419.419 0 0 0 .588 0 .417.417 0 0 0 0-.589zM5.934 11.12a.417.417 0 0 0-.589 0l-3.73 3.728a.417.417 0 0 0 .59.59l3.73-3.729a.417.417 0 0 0 0-.589zM8.88 14.066a.417.417 0 0 0-.59 0l-3.727 3.729a.417.417 0 0 0 .589.59l3.728-3.73a.417.417 0 0 0 0-.59zM15.437 1.617a.417.417 0 0 0-.59 0L11.12 5.346a.417.417 0 0 0 .59.589l3.728-3.73a.417.417 0 0 0 0-.588zM18.383 4.563a.417.417 0 0 0-.589 0l-3.729 3.729a.417.417 0 0 0 .59.589l3.728-3.729a.417.417 0 0 0 0-.589z"/>
    </g>
</svg>
