<svg xmlns="http://www.w3.org/2000/svg" width="14" height="14" viewBox="0 0 14 14">
    <path fill="#D3D9EC" fill-rule="nonzero" d="M13.466 4.218l-.617.618L9.142 1.13 9.76.512a1.748 1.748 0 0 1 2.471 0l1.235 1.236a1.748 1.748 0 0 1 0 2.47zm-8.649 7.413a.437.437 0 1 0 .618.617l6.796-6.794-.618-.618-6.796 6.795zM1.728 8.542a.436.436 0 1 0 .618.618l6.796-6.795-.618-.617-6.796 6.794zm8.03-5.56L2.965 9.779A.874.874 0 0 0 4.2 11.012l6.795-6.794-1.236-1.235zm-5.56 9.882a1.275 1.275 0 0 1-.347-.747 1.763 1.763 0 0 1-.27.026c-.466 0-.905-.182-1.235-.512a1.737 1.737 0 0 1-.512-1.236c0-.085.013-.168.025-.25a1.296 1.296 0 0 1-.748-.367c-.02-.02-.027-.046-.045-.068L0 13.977l4.256-1.065c-.019-.017-.04-.03-.058-.048z"/>
</svg>
