<?xml version="1.0" encoding="UTF-8" standalone="no"?>
<svg
   xmlns:dc="http://purl.org/dc/elements/1.1/"
   xmlns:cc="http://creativecommons.org/ns#"
   xmlns:rdf="http://www.w3.org/1999/02/22-rdf-syntax-ns#"
   xmlns:svg="http://www.w3.org/2000/svg"
   xmlns="http://www.w3.org/2000/svg"
   xmlns:sodipodi="http://sodipodi.sourceforge.net/DTD/sodipodi-0.dtd"
   xmlns:inkscape="http://www.inkscape.org/namespaces/inkscape"
   width="36px"
   height="36px"
   viewBox="0 0 36 36"
   version="1.1"
   id="svg3747"
   inkscape:version="0.91 r13725"
   sodipodi:docname="sort-icon.svg">
  <metadata
     id="metadata3784">
    <rdf:RDF>
      <cc:Work
         rdf:about="">
        <dc:format>image/svg+xml</dc:format>
        <dc:type
           rdf:resource="http://purl.org/dc/dcmitype/StillImage" />
        <dc:title>active cards icon</dc:title>
      </cc:Work>
    </rdf:RDF>
  </metadata>
  <sodipodi:namedview
     pagecolor="#ffffff"
     bordercolor="#666666"
     borderopacity="1"
     objecttolerance="10"
     gridtolerance="10"
     guidetolerance="10"
     inkscape:pageopacity="0"
     inkscape:pageshadow="2"
     inkscape:window-width="1220"
     inkscape:window-height="629"
     id="namedview3782"
     showgrid="false"
     inkscape:zoom="6.5555556"
     inkscape:cx="18"
     inkscape:cy="18"
     inkscape:window-x="1771"
     inkscape:window-y="254"
     inkscape:window-maximized="0"
     inkscape:current-layer="svg3747" />
  <!-- Generator: Sketch 48.2 (47327) - http://www.bohemiancoding.com/sketch -->
  <title
     id="title3749">active cards icon</title>
  <desc
     id="desc3751">Created with Sketch.</desc>
  <defs
     id="defs3753">
    <rect
       id="path-1"
       x="0"
       y="0"
       width="30"
       height="30"
       rx="2" />
    <filter
       x="-15.0%"
       y="-15.0%"
       width="130.0%"
       height="130.0%"
       filterUnits="objectBoundingBox"
       id="filter-2">
      <feOffset
         dx="0"
         dy="0"
         in="SourceAlpha"
         result="shadowOffsetOuter1"
         id="feOffset3757" />
      <feGaussianBlur
         stdDeviation="1.5"
         in="shadowOffsetOuter1"
         result="shadowBlurOuter1"
         id="feGaussianBlur3759" />
      <feComposite
         in="shadowBlurOuter1"
         in2="SourceAlpha"
         operator="out"
         result="shadowBlurOuter1"
         id="feComposite3761" />
      <feColorMatrix
         values="0 0 0 0 0.912335247   0 0 0 0 0.912335247   0 0 0 0 0.912335247  0 0 0 0.5 0"
         type="matrix"
         in="shadowBlurOuter1"
         id="feColorMatrix3763" />
    </filter>
  </defs>
  <g
     id="g3890"
     style="fill:#5d6787;fill-rule:nonzero"
     transform="translate(8.6949152,9.3050851)">
    <path
       id="path3892"
       d="m 0,0 18,0 0,1.125 -18,0 z m 0,2.813 14.625,0 0,1.125 -14.625,0 z m 0,2.812 11.25,0 0,1.125 -11.25,0 z m 0,2.813 7.875,0 0,1.125 -7.875,0 z m 0,2.812 5.625,0 0,1.125 -5.625,0 z m 0,2.813 4.5,0 0,1.125 -4.5,0 z m 0,2.812 2.25,0 L 2.25,18 0,18 Z m 15.915,-3.21 -0.727,0.727 0,-8.767 -1.126,0 0,8.755 -0.704,-0.713 -0.8,0.79 1.667,1.688 a 0.508,0.508 0 0 0 0.4,0.168 c 0.15,0 0.293,-0.06 0.398,-0.165 L 16.71,14.46 15.915,13.665 Z"
       inkscape:connector-curvature="0" />
  </g>
</svg>
