<svg xmlns="http://www.w3.org/2000/svg" width="10" height="14" viewBox="0 0 10 14">
    <g fill="none" fill-rule="nonzero">
        <g transform="translate(0 1.647)">
            <path fill="#FFDBB6" d="M3.997 8.526h2.041v2.259H3.997z"/>
            <path d="M3.997 8.792s.858.54 2.04.415v-.681h-2.04v.266z"/>
            <ellipse cx="1.053" cy="5.022" fill="#FACFA2" rx="1" ry="1.123"/>
            <ellipse cx="8.981" cy="5.022" fill="#FACFA2" rx="1" ry="1.123"/>
            <path fill="#FFDBB6" d="M8.977 2.877c0-1.654-1.224-2.864-3.96-2.864-2.735 0-3.96 1.21-3.96 2.864S.771 8.89 5.017 8.89c4.246 0 3.96-4.358 3.96-6.012z"/>
            <g fill="#FFF">
                <circle cx=".384" cy=".417" r="1" transform="translate(2.639 4.255)"/>
                <circle cx=".406" cy=".417" r="1" transform="translate(6.528 4.255)"/>
            </g>
            <path fill="#FCBC85" d="M5.032 7.917c-.156 0-.25-.325-.25-.168 0 .158.046.457.25.457.205 0 .25-.299.25-.457 0-.157-.094.168-.25.168z"/>
            <path fill="#F7945E" d="M5.017 7.483c-.671 0-1.076-.387-1.076-.289 0 .098.194.484 1.076.484.882 0 1.076-.386 1.076-.484 0-.098-.404.289-1.076.289z"/>
        </g>
        <path fill="#FB0" d="M5.017 11.05V14H.057c0-1.182 2.613-2.95 4.96-2.95z"/>
        <path fill="#FB0" d="M4.997 11.038L5.017 14h4.825c0-1.182-2.497-2.962-4.845-2.962z"/>
        <path fill="#FB0" d="M5.017 11.012c-.5 0-1.01.137-1.506.255.003.004.55.701 1.506.701.886 0 1.475-.597 1.56-.688-.207-.051-.327-.095-.537-.14a5.317 5.317 0 0 0-1.023-.128z"/>
        <path fill="#FFDBB6" d="M3.997 10.968s.025.12.11.216c.148.167.45.35.91.35.722 0 1.02-.566 1.02-.566s-1.058-.59-2.04 0z"/>
        <path fill="#585C68" d="M8.273 1.307S6.803-.54 3.75.157C.694.853.465 2.668.557 4.435c.092 1.766.337 2.803.626 2.674.29-.128.14-1.294.17-1.563.03-.269.306-1.486 2.164-1.304a7.767 7.767 0 0 0 3.423-.484s.63.787 1.045.938c.83.301.557 2.31.882 2.31.325 0 1.917-4.64-.594-5.7z"/>
    </g>
</svg>
