<svg xmlns="http://www.w3.org/2000/svg" xmlns:xlink="http://www.w3.org/1999/xlink" width="38" height="38" viewBox="0 0 38 38">
    <defs>
        <circle id="b" cx="15" cy="15" r="15"/>
        <filter id="a" width="140%" height="140%" x="-20%" y="-20%" filterUnits="objectBoundingBox">
            <feOffset in="SourceAlpha" result="shadowOffsetOuter1"/>
            <feGaussianBlur in="shadowOffsetOuter1" result="shadowBlurOuter1" stdDeviation="2"/>
            <feColorMatrix in="shadowBlurOuter1" values="0 0 0 0 0.814811862 0 0 0 0 0.814811862 0 0 0 0 0.814811862 0 0 0 0.5 0"/>
        </filter>
    </defs>
    <g fill="none" fill-rule="nonzero">
        <g transform="translate(4 4)">
            <use fill="#000" filter="url(#a)" xlink:href="#b"/>
            <use fill="#FFF" fill-rule="evenodd" xlink:href="#b"/>
        </g>
        <path fill="#E6E9EE" d="M31.07 28.349c-2.716 3.246-7.133 5.375-12.094 5.375-4.96 0-9.354-2.109-12.094-5.375 2.126-1.985 5.008-3.04 7.417-3.577-.212 1.509.685 3.535.709 3.473.898-1.82 3.945-1.985 3.945-1.985s3.047.145 3.968 1.985c.024.042.922-1.964.709-3.473 2.433.537 5.315 1.592 7.44 3.577z"/>
        <path fill="#FFD05B" d="M22.709 23.189c0 .307-.19 1.937-3.638 3.26h-.19c-3.448-1.323-3.637-2.953-3.637-3.26a4.758 4.758 0 0 1 .425-1.795c.945 1.063 2.079 1.771 3.307 1.771 1.205 0 2.363-.685 3.307-1.771.26.567.426 1.18.426 1.795z"/>
        <path fill="#F1543F" d="M21.031 26.992l-.755 1.512h-2.599l-.756-1.512c1.04-.449 2.055-.52 2.055-.52s1.04.071 2.055.52z"/>
        <path fill="#FF7058" d="M16.874 34.858a16.069 16.069 0 0 0 4.252 0l-.827-6.33h-2.598l-.827 6.33z"/>
        <g fill="#FFF">
            <path d="M22.709 23.142s.165 1.89-3.733 3.33c0 0 3.048.166 3.969 2.268.024.095 1.795-4.488-.236-5.598z"/>
            <path d="M15.244 23.142c-2.008 1.11-.26 5.669-.213 5.598C15.93 26.661 19 26.472 19 26.472c-3.921-1.44-3.756-3.33-3.756-3.33z"/>
        </g>
        <path fill="#F9B54C" d="M22.472 21.866c-.992 1.063-2.173 1.748-3.496 1.748-1.322 0-2.504-.685-3.496-1.748.048-.165.118-.33.19-.472.944 1.063 2.078 1.771 3.306 1.771 1.229 0 2.363-.685 3.307-1.771.071.141.142.307.19.472z"/>
        <path fill="#FFD05B" d="M25.425 18.252c-.496.827-1.252 1.323-1.819 1.228-1.134 2.103-2.787 3.662-4.63 3.662-1.842 0-3.496-1.583-4.63-3.662-.566.071-1.322-.401-1.818-1.228-.591-.969-.615-2.032-.048-2.386a.739.739 0 0 1 .45-.094c.377.968.897 1.559.897 1.559-.544-3 1.677-3.331 1.299-6.213 0 0 1.394 3.095 5.386.921l-.307.59c5.575-1.251 3.708 5.316 3.661 5.481a7.446 7.446 0 0 0 1.276-2.338c.094 0 .212.047.283.094.614.33.59 1.417 0 2.386z"/>
        <path fill="#324A5E" d="M22.189 8c.449-.047 1.181.354 1.181.354-2.008-2.291-5.291-.826-5.291-.826 1.11-.945 2.102-.85 2.102-.85-4.7-.71-5.504 2.102-5.504 2.102-.212-.331-.212-.804-.189-1.04-.33.567.024 1.7.024 1.7-.33-.826-1.488-.684-1.488-.684.992.165 1.157.78 1.157.78-2.48.92-2.055 3.495-2.055 3.495l.59-.708c-.732 2.81 1.134 4.984 1.134 4.984-.543-3 1.678-3.33 1.3-6.213 0 0 1.393 3.095 5.385.922l-.307.59c5.646-1.275 3.662 5.504 3.662 5.504 2.008-2.55 1.7-5.173 1.7-5.173l.237.945C26.465 9.63 22.189 8 22.189 8z"/>
    </g>
</svg>
