<svg xmlns="http://www.w3.org/2000/svg" width="25" height="18" viewBox="0 0 25 18">
    <path fill="#D5DAEC" fill-rule="nonzero" d="M22.656 0H2.344C1.049 0 0 1.007 0 2.25v13.5C0 16.993 1.05 18 2.344 18h20.312C23.951 18 25 16.993 25 15.75V2.25C25 1.007 23.95 0 22.656 0zm-.293 15.75H2.637a.287.287 0 0 1-.293-.281V2.53c0-.155.13-.281.293-.281h19.726c.162 0 .293.126.293.281V15.47a.287.287 0 0 1-.293.281zM19.727 7.5h-5.079a.575.575 0 0 1-.585-.563V5.813c0-.31.262-.562.585-.562h5.079c.323 0 .585.252.585.563v1.125c0 .31-.262.562-.585.562zm0 3.75h-5.079a.575.575 0 0 1-.585-.563V9.563c0-.311.262-.563.585-.563h5.079c.323 0 .585.252.585.563v1.124c0 .311-.262.563-.585.563zM5.859 6.75c0-1.45 1.225-2.625 2.735-2.625 1.51 0 2.734 1.175 2.734 2.625s-1.224 2.625-2.734 2.625S5.859 8.2 5.859 6.75zm6.641 4.212v1.976c0 .31-.262.562-.586.562h-6.64a.575.575 0 0 1-.587-.563v-1.975c0-.497.34-.935.836-1.078l.657-.189a3.989 3.989 0 0 0 2.414.805 3.99 3.99 0 0 0 2.413-.805l.658.19c.496.142.835.58.835 1.077z"/>
</svg>
