<svg xmlns="http://www.w3.org/2000/svg" width="20" height="23" viewBox="0 0 20 23">
    <path fill="#D3D9EC" fill-rule="nonzero" d="M18.991 14.866c-.758-.754-1.542-1.533-1.542-5.214 0-3.73-2.721-6.832-6.27-7.402.163-.239.25-.522.25-.813C11.429.644 10.789 0 10 0S8.571.644 8.571 1.438c0 .29.087.573.25.812-3.549.57-6.27 3.672-6.27 7.402 0 3.68-.783 4.46-1.542 5.214-2.147 2.134-.575 5.259 1.978 5.259h4.156A2.866 2.866 0 0 0 10 23a2.866 2.866 0 0 0 2.857-2.875h4.156c2.553 0 4.125-3.126 1.978-5.259zM10 21.203c-.59 0-1.071-.484-1.071-1.078h2.142c0 .594-.48 1.078-1.071 1.078zm7.013-3.234H2.987c-.749 0-1.122-.916-.596-1.446 1.276-1.284 2.303-2.504 2.303-6.871 0-2.944 2.38-5.34 5.306-5.34s5.306 2.396 5.306 5.34c0 4.386 1.037 5.596 2.302 6.87.53.533.15 1.447-.595 1.447z"/>
</svg>
