<svg xmlns="http://www.w3.org/2000/svg" width="18" height="21" viewBox="0 0 18 21">
    <path fill="#D3D9EC" fill-rule="nonzero" d="M5.946 11.813H4.34a.489.489 0 0 1-.482-.493V9.68c0-.271.217-.492.482-.492h1.607c.266 0 .483.221.483.492v1.64c0 .271-.217.492-.483.492zm4.34-.493V9.68a.489.489 0 0 0-.482-.492H8.196a.489.489 0 0 0-.482.492v1.64c0 .271.217.492.482.492h1.608a.489.489 0 0 0 .482-.492zm3.857 0V9.68a.489.489 0 0 0-.482-.492h-1.607a.489.489 0 0 0-.483.492v1.64c0 .271.217.492.483.492h1.607a.489.489 0 0 0 .482-.492zm-3.857 3.938v-1.64a.489.489 0 0 0-.482-.493H8.196a.489.489 0 0 0-.482.492v1.64c0 .272.217.493.482.493h1.608a.489.489 0 0 0 .482-.492zm-3.857 0v-1.64a.489.489 0 0 0-.483-.493H4.34a.489.489 0 0 0-.482.492v1.64c0 .272.217.493.482.493h1.607a.489.489 0 0 0 .483-.492zm7.714 0v-1.64a.489.489 0 0 0-.482-.493h-1.607a.489.489 0 0 0-.483.492v1.64c0 .272.217.493.483.493h1.607a.489.489 0 0 0 .482-.492zM18 4.594V19.03C18 20.118 17.136 21 16.071 21H1.93C.864 21 0 20.118 0 19.031V4.594c0-1.087.864-1.969 1.929-1.969h1.928V.492c0-.27.217-.492.482-.492h1.607c.266 0 .483.221.483.492v2.133h5.142V.492c0-.27.217-.492.483-.492h1.607c.265 0 .482.221.482.492v2.133h1.928c1.065 0 1.929.882 1.929 1.969zm-1.929 14.191V6.562H1.93v12.223c0 .136.108.246.24.246H15.83c.133 0 .241-.11.241-.246z"/>
</svg>
