<svg xmlns="http://www.w3.org/2000/svg" width="20" height="15" viewBox="0 0 20 15">
    <path fill="#D3D9EC" fill-rule="nonzero" d="M19.531 13.125a.47.47 0 0 1 .469.469v.937a.47.47 0 0 1-.469.469H.47A.47.47 0 0 1 0 14.531V.47A.47.47 0 0 1 .469 0h.937a.47.47 0 0 1 .469.469v12.656h17.656zM5.625 10.781V7.97a.47.47 0 0 0-.469-.469H4.22a.47.47 0 0 0-.469.469v2.812c0 .258.21.469.469.469h.937a.47.47 0 0 0 .469-.469zm3.75 0V2.97a.47.47 0 0 0-.469-.469H7.97a.47.47 0 0 0-.469.469v7.812c0 .258.21.469.469.469h.937a.47.47 0 0 0 .469-.469zm3.75 0V5.47A.47.47 0 0 0 12.656 5h-.937a.47.47 0 0 0-.469.469v5.312c0 .258.21.469.469.469h.937a.47.47 0 0 0 .469-.469zm3.75 0V1.72a.47.47 0 0 0-.469-.469h-.937a.47.47 0 0 0-.469.469v9.062c0 .258.21.469.469.469h.937a.47.47 0 0 0 .469-.469z"/>
</svg>
