<?xml version="1.0" encoding="UTF-8" standalone="no"?>
<!-- Generator: Adobe Illustrator 15.1.0, SVG Export Plug-In . SVG Version: 6.00 Build 0)  -->

<svg
   xmlns:dc="http://purl.org/dc/elements/1.1/"
   xmlns:cc="http://creativecommons.org/ns#"
   xmlns:rdf="http://www.w3.org/1999/02/22-rdf-syntax-ns#"
   xmlns:svg="http://www.w3.org/2000/svg"
   xmlns="http://www.w3.org/2000/svg"
   xmlns:sodipodi="http://sodipodi.sourceforge.net/DTD/sodipodi-0.dtd"
   xmlns:inkscape="http://www.inkscape.org/namespaces/inkscape"
   version="1.1"
   id="Layer_1"
   x="0px"
   y="0px"
   width="398.44998"
   height="130.52499"
   viewBox="0 0 398.44998 130.52499"
   enable-background="new 0 0 720 1080"
   xml:space="preserve"
   inkscape:version="0.91 r13725"
   sodipodi:docname="logo.svg"><metadata
     id="metadata143"><rdf:RDF><cc:Work
         rdf:about=""><dc:format>image/svg+xml</dc:format><dc:type
           rdf:resource="http://purl.org/dc/dcmitype/StillImage" /><dc:title></dc:title></cc:Work></rdf:RDF></metadata><defs
     id="defs141" /><sodipodi:namedview
     pagecolor="#ffffff"
     bordercolor="#666666"
     borderopacity="1"
     objecttolerance="10"
     gridtolerance="10"
     guidetolerance="10"
     inkscape:pageopacity="0"
     inkscape:pageshadow="2"
     inkscape:window-width="1366"
     inkscape:window-height="750"
     id="namedview139"
     showgrid="false"
     fit-margin-top="0"
     fit-margin-left="0"
     fit-margin-right="0"
     fit-margin-bottom="0"
     inkscape:zoom="0.6180637"
     inkscape:cx="209.60361"
     inkscape:cy="-89.471137"
     inkscape:window-x="0"
     inkscape:window-y="18"
     inkscape:window-maximized="1"
     inkscape:current-layer="Layer_1" /><g
     id="g3"
     transform="translate(-53.722024,-519.254)"><g
       id="g5"><linearGradient
         id="SVGID_1_"
         gradientUnits="userSpaceOnUse"
         x1="171.2085"
         y1="616.17578"
         x2="170.97951"
         y2="648.43323"><stop
           offset="0.2165"
           style="stop-color:#2D84AE"
           id="stop8" /><stop
           offset="0.8292"
           style="stop-color:#2B80A8"
           id="stop10" /></linearGradient><path
         d="m 177.561,628.117 c 0,0 -4.172,10.109 -2.728,21.662 0,0 -7.06,-8.344 -14.601,-13.479 0,0 -0.942,-0.741 -3.65,-1.944 0,0 -5.896,-3.31 -9.085,-7.342 0,0 0.542,-5.233 1.825,-9.887 0,0 1.364,0.08 2.407,-1.122 0,0 17.57,8.263 43.081,4.894 -0.001,-10e-4 -5.697,6.335 -17.249,7.218 z"
         id="path12"
         inkscape:connector-curvature="0"
         style="fill:url(#SVGID_1_)" /><linearGradient
         id="SVGID_2_"
         gradientUnits="userSpaceOnUse"
         x1="152.05029"
         y1="606.30957"
         x2="198.0181"
         y2="606.30957"><stop
           offset="0.2165"
           style="stop-color:#73C9CA"
           id="stop15" /><stop
           offset="0.4296"
           style="stop-color:#5DC0C2"
           id="stop17" /><stop
           offset="0.8292"
           style="stop-color:#2BACAE"
           id="stop19" /></linearGradient><path
         d="m 152.05,608.703 c 0,0 1.523,1.124 1.764,3.61 0,0 23.667,8.264 43.643,3.37 0,0 0.32,-1.926 0.561,-4.173 0,0 -21.259,-3.207 -36.421,-16.124 0,0 -1.364,1.203 -3.37,0.721 0,0 -4.653,7.704 -6.177,12.596 z"
         id="path21"
         inkscape:connector-curvature="0"
         style="fill:url(#SVGID_2_)" /><linearGradient
         id="SVGID_3_"
         gradientUnits="userSpaceOnUse"
         x1="163.5215"
         y1="587.2041"
         x2="205.1055"
         y2="587.2041"><stop
           offset="0.0781"
           style="stop-color:#4BD6C7"
           id="stop24" /><stop
           offset="0.8136"
           style="stop-color:#35D1C0"
           id="stop26" /><stop
           offset="1"
           style="stop-color:#2FCFBE"
           id="stop28" /></linearGradient><path
         d="m 163.521,588.085 c 0,0 1.285,2.087 0.963,4.494 0,0 18.612,13.477 36.663,15.002 0,0 11.553,-12.194 -4.814,-30.486 0,0 -2.887,-6.738 -7.862,-10.268 0,0 -13.157,6.177 -24.95,21.258 z"
         id="path30"
         inkscape:connector-curvature="0"
         style="fill:url(#SVGID_3_)" /><linearGradient
         id="SVGID_4_"
         gradientUnits="userSpaceOnUse"
         x1="151.248"
         y1="570.83789"
         x2="185.58299"
         y2="570.83789"><stop
           offset="0.139"
           style="stop-color:#F7DC63"
           id="stop33" /><stop
           offset="0.9273"
           style="stop-color:#F7D34A"
           id="stop35" /></linearGradient><path
         d="m 160.714,586.16 c 0,0 8.503,-12.113 24.869,-21.42 0,0 -6.097,-5.295 -13.156,-5.937 0,0 -3.049,-2.407 -6.258,-3.851 0,0 -4.332,11.07 -14.601,21.34 0,0 0.802,1.926 -0.32,3.85 0,0 3.048,4.252 6.097,6.58 0,10e-4 1.605,-0.722 3.369,-0.562 z"
         id="path37"
         inkscape:connector-curvature="0"
         style="fill:url(#SVGID_4_)" /><linearGradient
         id="SVGID_5_"
         gradientUnits="userSpaceOnUse"
         x1="136.6069"
         y1="562.24512"
         x2="162.3584"
         y2="562.24512"><stop
           offset="0.2237"
           style="stop-color:#F6C23D"
           id="stop40" /><stop
           offset="0.2631"
           style="stop-color:#F6C13B"
           id="stop42" /><stop
           offset="1"
           style="stop-color:#F6B315"
           id="stop44" /></linearGradient><path
         d="m 136.607,554.392 c 0,0 11.19,-5.655 25.751,-0.964 0,0 -3.73,8.185 -13.236,19.496 0,0 -2.527,-0.723 -3.49,-0.119 0,0 -6.619,-9.989 -9.025,-18.413 z"
         id="path46"
         inkscape:connector-curvature="0"
         style="fill:url(#SVGID_5_)" /><linearGradient
         id="SVGID_6_"
         gradientUnits="userSpaceOnUse"
         x1="127.4609"
         y1="595.42682"
         x2="155.37891"
         y2="595.42682"><stop
           offset="0.2237"
           style="stop-color:#F6C23D"
           id="stop49" /><stop
           offset="0.2631"
           style="stop-color:#F6C13B"
           id="stop51" /><stop
           offset="1"
           style="stop-color:#F6B315"
           id="stop53" /></linearGradient><path
         d="m 127.461,593.861 c 0,0 11.914,-5.896 17.689,-11.792 0,0 1.083,0.724 2.808,0.32 0,0 2.848,3.892 6.939,7.741 0,0 -0.722,1.686 0.481,3.49 0,0 -5.174,8.424 -6.859,13.598 0,0 -1.564,0 -3.008,1.565 0,0 -12.395,-6.98 -17.93,-13.358 10e-4,0.001 0.121,0.001 -0.12,-1.564 z"
         id="path55"
         inkscape:connector-curvature="0"
         style="fill:url(#SVGID_6_)" /><linearGradient
         id="SVGID_7_"
         gradientUnits="userSpaceOnUse"
         x1="125.3433"
         y1="629.08893"
         x2="127.4255"
         y2="598.17938"><stop
           offset="0.2237"
           style="stop-color:#BD316E"
           id="stop58" /><stop
           offset="1"
           style="stop-color:#C83876"
           id="stop60" /></linearGradient><path
         d="m 119.158,597.353 c 0,0 1.444,2.284 4.934,1.083 0,0 8.063,8.422 19.615,14.08 0,0 0.361,2.646 1.805,3.607 0,0 -1.564,6.498 -1.925,11.072 0,0 -18.291,5.775 -28.279,-8.904 0,0 -0.241,0.24 -1.083,0.24 0,0 -3.49,-5.896 -6.378,-16.125 0,0 1.444,-0.963 1.564,-2.647 0,0 6.498,-1.323 9.747,-2.406 z"
         id="path62"
         inkscape:connector-curvature="0"
         style="fill:url(#SVGID_7_)" /><linearGradient
         id="SVGID_8_"
         gradientUnits="userSpaceOnUse"
         x1="86.342796"
         y1="613.37891"
         x2="119.7718"
         y2="604.15741"><stop
           offset="0.2237"
           style="stop-color:#F33A40"
           id="stop65" /><stop
           offset="0.4015"
           style="stop-color:#F64645"
           id="stop67" /><stop
           offset="1"
           style="stop-color:#FF6C54"
           id="stop69" /></linearGradient><path
         d="m 103.755,603.008 c 0,0 2.407,8.904 6.017,15.883 0,0 -19.735,2.408 -25.751,-16.846 0,0 10.589,0.722 17.208,-0.602 -0.001,0 1.082,1.684 2.526,1.565 z"
         id="path71"
         inkscape:connector-curvature="0"
         style="fill:url(#SVGID_8_)" /><linearGradient
         id="SVGID_9_"
         gradientUnits="userSpaceOnUse"
         x1="105.5557"
         y1="584.29492"
         x2="118.0752"
         y2="584.29492"><stop
           offset="0"
           style="stop-color:#FC5F1C"
           id="stop74" /><stop
           offset="0.7706"
           style="stop-color:#FC6E31"
           id="stop76" /></linearGradient><path
         d="m 105.921,572.924 c 0,0 -1.083,9.386 0.481,20.457 0,0 2.286,0.962 2.888,2.285 0,0 6.619,-1.443 8.424,-2.404 0,0 0,-0.964 0.361,-1.445 0,-10e-4 -6.86,-7.943 -12.154,-18.893 z"
         id="path78"
         inkscape:connector-curvature="0"
         style="fill:url(#SVGID_9_)" /><linearGradient
         id="SVGID_10_"
         gradientUnits="userSpaceOnUse"
         x1="82.080101"
         y1="580.38959"
         x2="102.8047"
         y2="586.08447"><stop
           offset="0"
           style="stop-color:#FC5F1C"
           id="stop81" /><stop
           offset="0.7706"
           style="stop-color:#FC6E31"
           id="stop83" /></linearGradient><path
         d="m 102.07,571.48 c 0,0 -2.045,12.996 0.361,22.502 0,0 -1.805,0.682 -2.367,3.329 0,0 -8.424,1.444 -16.606,0.401 0,0 0.401,-6.178 5.135,-12.596 0,0 1.604,-8.102 11.632,-16.686 0,0.002 0.16,1.765 1.845,3.05 z"
         id="path85"
         inkscape:connector-curvature="0"
         style="fill:url(#SVGID_10_)" /><linearGradient
         id="SVGID_11_"
         gradientUnits="userSpaceOnUse"
         x1="108.8086"
         y1="572.88281"
         x2="142.3428"
         y2="572.88281"><stop
           offset="0.139"
           style="stop-color:#F7DC63"
           id="stop88" /><stop
           offset="0.9273"
           style="stop-color:#F7D34A"
           id="stop90" /></linearGradient><path
         d="m 108.809,564.339 c 0,0 2.487,1.927 0.722,6.419 0,0 3.049,7.621 11.553,18.371 0,0 2.005,-1.443 4.653,0.803 0,0 13.718,-7.381 16.526,-10.992 0,0 -0.722,-1.122 0.081,-3.608 0,0 -6.658,-9.467 -9.306,-19.496 0,0 -0.802,0.161 -1.926,1.124 0,0 -9.306,-4.252 -16.365,5.936 -0.001,-10e-4 -2.809,-0.322 -5.938,1.443 z"
         id="path92"
         inkscape:connector-curvature="0"
         style="fill:url(#SVGID_11_)" /><linearGradient
         id="SVGID_12_"
         gradientUnits="userSpaceOnUse"
         x1="147.9395"
         y1="520.24371"
         x2="147.8929"
         y2="542.21838"><stop
           offset="0.2237"
           style="stop-color:#F6C23D"
           id="stop95" /><stop
           offset="0.2631"
           style="stop-color:#F6C13B"
           id="stop97" /><stop
           offset="1"
           style="stop-color:#F6B315"
           id="stop99" /></linearGradient><path
         d="m 150.686,538.388 c 0,1.528 -1.239,2.767 -2.768,2.767 l 0,0 c -1.529,0 -2.768,-1.238 -2.768,-2.767 l 0,-16.366 c 0,-1.529 1.239,-2.768 2.768,-2.768 l 0,0 c 1.529,0 2.768,1.239 2.768,2.768 l 0,16.366 z"
         id="path101"
         inkscape:connector-curvature="0"
         style="fill:url(#SVGID_12_)" /><linearGradient
         id="SVGID_13_"
         gradientUnits="userSpaceOnUse"
         x1="197.13181"
         y1="551.56641"
         x2="207.12489"
         y2="539.91052"><stop
           offset="0.0781"
           style="stop-color:#4BD6C7"
           id="stop104" /><stop
           offset="0.8136"
           style="stop-color:#35D1C0"
           id="stop106" /><stop
           offset="1"
           style="stop-color:#2FCFBE"
           id="stop108" /></linearGradient><path
         d="m 197.69,555.98 c -0.916,1.225 -2.651,1.471 -3.875,0.556 l 0,0 c -1.223,-0.917 -1.471,-2.653 -0.554,-3.874 l 9.816,-13.097 c 0.917,-1.224 2.651,-1.471 3.875,-0.555 l 0,0 c 1.223,0.917 1.471,2.653 0.554,3.875 l -9.816,13.095 z"
         id="path110"
         inkscape:connector-curvature="0"
         style="fill:url(#SVGID_13_)" /><linearGradient
         id="SVGID_14_"
         gradientUnits="userSpaceOnUse"
         x1="53.721699"
         y1="593.25983"
         x2="75.569801"
         y2="593.25983"><stop
           offset="0"
           style="stop-color:#FC5F1C"
           id="stop113" /><stop
           offset="0.7706"
           style="stop-color:#FC6E31"
           id="stop115" /></linearGradient><path
         d="m 56.268,595.367 c -1.523,-0.122 -2.659,-1.456 -2.537,-2.98 l 0,0 c 0.122,-1.523 1.455,-2.66 2.979,-2.538 l 16.313,1.306 c 1.524,0.121 2.66,1.455 2.538,2.98 l 0,0 c -0.122,1.523 -1.456,2.658 -2.979,2.537 l -16.314,-1.305 z"
         id="path117"
         inkscape:connector-curvature="0"
         style="fill:url(#SVGID_14_)" /><linearGradient
         id="SVGID_15_"
         gradientUnits="userSpaceOnUse"
         x1="211.60451"
         y1="590.37207"
         x2="233.4482"
         y2="590.37207"><stop
           offset="0.2237"
           style="stop-color:#F6C23D"
           id="stop120" /><stop
           offset="0.2631"
           style="stop-color:#F6C13B"
           id="stop122" /><stop
           offset="1"
           style="stop-color:#F6B315"
           id="stop124" /></linearGradient><path
         d="m 214.605,593.818 c -1.523,0.128 -2.862,-1.002 -2.991,-2.525 l 0,0 c -0.128,-1.523 1.002,-2.862 2.526,-2.989 l 16.308,-1.378 c 1.522,-0.127 2.862,1.004 2.99,2.527 l 0,0 c 0.128,1.521 -1.002,2.86 -2.525,2.988 l -16.308,1.377 z"
         id="path126"
         inkscape:connector-curvature="0"
         style="fill:url(#SVGID_15_)" /><linearGradient
         id="SVGID_16_"
         gradientUnits="userSpaceOnUse"
         x1="85.777802"
         y1="550.57318"
         x2="98.009003"
         y2="562.9339"><stop
           offset="0"
           style="stop-color:#FC5F1C"
           id="stop129" /><stop
           offset="0.7706"
           style="stop-color:#FC6E31"
           id="stop131" /></linearGradient><path
         d="m 81.84,550.875 c -1.107,-1.054 -1.15,-2.805 -0.096,-3.914 l 0,0 c 1.054,-1.107 2.805,-1.149 3.912,-0.096 l 11.854,11.283 c 1.107,1.055 1.15,2.807 0.096,3.914 l 0,0 c -1.054,1.107 -2.806,1.15 -3.913,0.097 L 81.84,550.875 Z"
         id="path133"
         inkscape:connector-curvature="0"
         style="fill:url(#SVGID_16_)" /></g><g
       id="g135"><path
         d="m 243.249,612.456 3.636,0 0,-51.936 -3.636,0 0,51.936 z m 13.799,0 3.635,0 0,-36.8 -3.635,0 0,36.8 z m -1.038,-48.597 c 0,3.857 5.861,3.857 5.861,0 0,-3.858 -5.861,-3.858 -5.861,0 z m 31.679,11.279 c -5.12,0.072 -10.239,2.151 -13.058,7.197 l 0,-6.528 -3.562,0 0,36.649 3.636,0 0,-20.401 c 0,-7.57 5.268,-13.283 12.835,-13.354 7.938,-0.076 13.059,4.377 13.059,12.686 l 0,21.07 3.635,0 0,-21.145 c 0,-10.165 -6.753,-16.174 -16.545,-16.174 z m 70.26,37.318 6.311,0 0,-51.861 -6.311,0 0,51.861 z m -15.417,-32.743 c -3.25,-2.843 -7.622,-4.575 -12.835,-4.575 -11.648,0 -18.919,8.606 -18.919,19.066 0,10.535 7.122,19.068 18.992,19.068 5.238,0 9.561,-1.664 12.762,-4.424 l 0,3.607 6.311,0 0,-37.194 -6.311,0 0,4.452 z m -12.821,27.876 c -8.244,0 -12.413,-6.487 -12.413,-13.438 0,-6.855 4.261,-13.529 12.413,-13.529 7.6,0 12.419,6.674 12.419,13.529 0,6.951 -4.172,13.438 -12.419,13.438 z m 72.603,-0.697 C 408.328,604.146 409.125,596 409,593 c -0.167,-4.002 -1,-7.125 -4.409,-12.426 l 3.659,-4.74 -4.674,-3.666 -3.637,4.601 c -2.521,-1.705 -5.487,-2.077 -8.381,-2.077 -10.239,0 -18.55,7.124 -18.55,18.548 0,11.426 7.122,18.4 18.55,18.4 9.691,0 12.816,2.314 12.816,7.36 0,9.5 -7.623,11.125 -12.816,11.125 -7.892,0 -13.059,-6.392 -13.059,-11.139 l -5.491,0 c 0,9.866 7.941,16.322 18.55,16.322 10.61,0 18.324,-6.233 18.324,-16.322 10e-4,-4.676 -1.482,-9.052 -7.568,-12.094 z m -11.315,-0.654 c -6.613,0 -12.013,-4.749 -12.013,-12.759 0,-8.005 5.399,-12.94 12.013,-12.94 6.519,0 11.919,5.026 11.919,12.94 0,7.918 -5.4,12.759 -11.919,12.759 z m 42.031,-31.1 c -11.648,0 -18.919,8.606 -18.919,19.066 0,10.535 7.122,19.068 18.992,19.068 11.874,0 19.069,-8.533 19.069,-19.068 10e-4,-10.46 -7.493,-19.066 -19.142,-19.066 z m 0.015,32.451 c -8.244,0 -12.413,-6.487 -12.413,-13.438 0,-6.855 4.261,-13.529 12.413,-13.529 7.6,0 12.419,6.674 12.419,13.529 0,6.951 -4.173,13.438 -12.419,13.438 z"
         id="path137"
         inkscape:connector-curvature="0"
         style="fill:#4c5a69" /></g></g></svg>